# xmcd
#
# Track frame offsets:
#	150
#	16760
#	31057
#	47026
#	59477
#	76540
#
# Disc length: 1215 seconds
# Revision: 0
# Processed by: cddbd v1.5.2PL0 Copyright (c) Steve Scherf et al.
# Submitted via: dBpowerAMP V12.0
#
DISCID=3704bd06
DTITLE=lonesome and ernest - border town
DYEAR=2019
DGENRE=Country
TTITLE0=gunman
TTITLE1=me and miss loralee
TTITLE2=mountain pass
TTITLE3=conchita
TTITLE4=bells ring for conchita
TTITLE5=pale cowboys
EXTD=
EXTT0=
EXTT1=
EXTT2=
EXTT3=
EXTT4=
EXTT5=
PLAYORDER=
